<?xml version="1.0" encoding="utf-8"?>
<!-- Generator: Adobe Illustrator 19.0.0, SVG Export Plug-In . SVG Version: 6.00 Build 0)  -->
<svg version="1.1" id="Слой_1" xmlns="http://www.w3.org/2000/svg" xmlns:xlink="http://www.w3.org/1999/xlink" x="0px" y="0px"
	 viewBox="0 0 205 205" style="enable-background:new 0 0 205 205;" xml:space="preserve">
<style type="text/css">
	.st0{fill:none;stroke:url(#XMLID_9_);stroke-width:3;stroke-miterlimit:10;}
	.st1{fill:none;stroke:url(#XMLID_56_);stroke-width:3;stroke-miterlimit:10;}
	.st2{fill:none;stroke:url(#XMLID_60_);stroke-width:3;stroke-miterlimit:10;}
	.st3{fill:none;stroke:url(#XMLID_61_);stroke-width:3;stroke-miterlimit:10;}
	.st4{fill:none;stroke:url(#XMLID_66_);stroke-width:3;stroke-miterlimit:10;}
	.st5{fill:none;stroke:url(#XMLID_67_);stroke-width:3;stroke-miterlimit:10;}
	.st6{fill:none;stroke:url(#XMLID_68_);stroke-width:3;stroke-miterlimit:10;}
	.st7{fill:none;stroke:url(#XMLID_69_);stroke-width:3;stroke-miterlimit:10;}
	.st8{fill:none;stroke:url(#XMLID_70_);stroke-width:3;stroke-miterlimit:10;}
	.st9{fill:none;stroke:url(#XMLID_71_);stroke-width:3;stroke-miterlimit:10;}
	.st10{fill:none;stroke:url(#XMLID_72_);stroke-width:3;stroke-miterlimit:10;}
	.st11{fill:none;stroke:url(#XMLID_73_);stroke-width:3;stroke-miterlimit:10;}
	.st12{fill:none;stroke:url(#XMLID_74_);stroke-width:3;stroke-miterlimit:10;}
	.st13{fill:none;stroke:url(#XMLID_75_);stroke-width:3;stroke-miterlimit:10;}
	.st14{fill:none;stroke:url(#XMLID_76_);stroke-width:3;stroke-miterlimit:10;}
	.st15{fill:none;stroke:url(#XMLID_77_);stroke-width:3;stroke-miterlimit:10;}
	.st16{fill:none;stroke:url(#XMLID_78_);stroke-width:3;stroke-miterlimit:10;}
	.st17{fill:none;stroke:url(#XMLID_79_);stroke-width:3;stroke-miterlimit:10;}
	.st18{fill:none;stroke:url(#XMLID_80_);stroke-width:3;stroke-miterlimit:10;}
	.st19{fill:none;stroke:url(#XMLID_81_);stroke-width:3;stroke-miterlimit:10;}
	.st20{fill:none;stroke:url(#XMLID_82_);stroke-width:3;stroke-miterlimit:10;}
	.st21{fill:none;stroke:url(#XMLID_83_);stroke-width:3;stroke-miterlimit:10;}
	.st22{fill:none;stroke:url(#XMLID_84_);stroke-width:3;stroke-miterlimit:10;}
	.st23{fill:none;stroke:url(#XMLID_85_);stroke-width:3;stroke-miterlimit:10;}
	.st24{fill:none;stroke:url(#XMLID_86_);stroke-width:3;stroke-miterlimit:10;}
	.st25{fill:none;stroke:url(#XMLID_87_);stroke-width:3;stroke-miterlimit:10;}
	.st26{fill:none;stroke:url(#XMLID_88_);stroke-width:3;stroke-miterlimit:10;}
	.st27{fill:none;stroke:url(#XMLID_89_);stroke-width:3;stroke-miterlimit:10;}
	.st28{fill:#EBC277;}
	.st29{fill:#D7A352;}
</style>
<g id="XMLID_2_">
	<linearGradient id="XMLID_9_" gradientUnits="userSpaceOnUse" x1="74.7408" y1="19.75" x2="74.7408" y2="136.75">
		<stop  offset="0" style="stop-color:#F1C874"/>
		<stop  offset="1" style="stop-color:#D39D4D"/>
	</linearGradient>
	<polygon id="XMLID_3_" class="st0" points="69.6,21.3 60.7,36.6 87.3,21.3 	"/>
	<linearGradient id="XMLID_56_" gradientUnits="userSpaceOnUse" x1="164.2465" y1="19.75" x2="164.2465" y2="136.75">
		<stop  offset="0" style="stop-color:#F1C874"/>
		<stop  offset="1" style="stop-color:#D39D4D"/>
	</linearGradient>
	<polygon id="XMLID_19_" class="st1" points="168.6,78.3 159.7,62.9 159.7,93.6 	"/>
	<linearGradient id="XMLID_60_" gradientUnits="userSpaceOnUse" x1="130.4474" y1="19.75" x2="130.4474" y2="136.75">
		<stop  offset="0" style="stop-color:#F1C874"/>
		<stop  offset="1" style="stop-color:#D39D4D"/>
	</linearGradient>
	<polygon id="XMLID_20_" class="st2" points="135.6,21.3 118.1,21.3 144.3,36.4 	"/>
	<linearGradient id="XMLID_61_" gradientUnits="userSpaceOnUse" x1="40.9202" y1="19.75" x2="40.9202" y2="136.75">
		<stop  offset="0" style="stop-color:#F1C874"/>
		<stop  offset="1" style="stop-color:#D39D4D"/>
	</linearGradient>
	<polygon id="XMLID_22_" class="st3" points="36.6,78.3 45.4,93.6 45.5,62.9 	"/>
	<linearGradient id="XMLID_66_" gradientUnits="userSpaceOnUse" x1="74.7193" y1="19.75" x2="74.7193" y2="136.75">
		<stop  offset="0" style="stop-color:#F1C874"/>
		<stop  offset="1" style="stop-color:#D39D4D"/>
	</linearGradient>
	<polygon id="XMLID_23_" class="st4" points="69.6,135.3 87.1,135.3 60.8,120.1 	"/>
	<linearGradient id="XMLID_67_" gradientUnits="userSpaceOnUse" x1="130.4258" y1="19.75" x2="130.4258" y2="136.75">
		<stop  offset="0" style="stop-color:#F1C874"/>
		<stop  offset="1" style="stop-color:#D39D4D"/>
	</linearGradient>
	<polygon id="XMLID_24_" class="st5" points="135.6,135.3 144.5,119.9 117.9,135.3 	"/>
	<linearGradient id="XMLID_68_" gradientUnits="userSpaceOnUse" x1="150.7429" y1="10.6551" x2="150.7429" y2="145.8449">
		<stop  offset="0" style="stop-color:#F1C874"/>
		<stop  offset="1" style="stop-color:#D39D4D"/>
	</linearGradient>
	<polygon id="XMLID_25_" class="st6" points="159.7,45.3 144.3,36.4 159.7,62.9 	"/>
	<linearGradient id="XMLID_69_" gradientUnits="userSpaceOnUse" x1="102.6901" y1="10.6551" x2="102.6901" y2="145.8449">
		<stop  offset="0" style="stop-color:#F1C874"/>
		<stop  offset="1" style="stop-color:#D39D4D"/>
	</linearGradient>
	<polygon id="XMLID_26_" class="st7" points="102.7,12.4 87.3,21.3 118.1,21.3 	"/>
	<linearGradient id="XMLID_70_" gradientUnits="userSpaceOnUse" x1="150.7819" y1="10.6551" x2="150.7819" y2="145.8449">
		<stop  offset="0" style="stop-color:#F1C874"/>
		<stop  offset="1" style="stop-color:#D39D4D"/>
	</linearGradient>
	<polygon id="XMLID_27_" class="st8" points="159.7,93.6 144.5,119.9 159.7,111.1 	"/>
	<linearGradient id="XMLID_71_" gradientUnits="userSpaceOnUse" x1="54.4238" y1="10.6551" x2="54.4238" y2="145.8449">
		<stop  offset="0" style="stop-color:#F1C874"/>
		<stop  offset="1" style="stop-color:#D39D4D"/>
	</linearGradient>
	<polygon id="XMLID_28_" class="st9" points="45.4,111.3 60.8,120.1 45.4,93.6 	"/>
	<linearGradient id="XMLID_72_" gradientUnits="userSpaceOnUse" x1="54.3848" y1="10.6551" x2="54.3848" y2="145.8449">
		<stop  offset="0" style="stop-color:#F1C874"/>
		<stop  offset="1" style="stop-color:#D39D4D"/>
	</linearGradient>
	<polygon id="XMLID_29_" class="st10" points="45.5,45.4 45.5,62.9 60.7,36.6 	"/>
	<linearGradient id="XMLID_73_" gradientUnits="userSpaceOnUse" x1="102.4765" y1="10.6551" x2="102.4765" y2="145.8449">
		<stop  offset="0" style="stop-color:#F1C874"/>
		<stop  offset="1" style="stop-color:#D39D4D"/>
	</linearGradient>
	<polygon id="XMLID_30_" class="st11" points="102.5,144.1 117.9,135.3 87.1,135.3 	"/>
	<linearGradient id="XMLID_74_" gradientUnits="userSpaceOnUse" x1="102.5833" y1="19.75" x2="102.5833" y2="136.8399">
		<stop  offset="0" style="stop-color:#F1C874"/>
		<stop  offset="1" style="stop-color:#D39D4D"/>
	</linearGradient>
	<path id="XMLID_33_" class="st12" d="M159.7,62.9l-15.4-26.6l-26.3-15.1H87.3L60.7,36.6L45.5,62.9l0,30.7l15.4,26.6l26.3,15.1h30.7
		l26.6-15.4l15.2-26.3L159.7,62.9z M130,126.5l-17.7-9.5l-10.1,16.9l-10.1-17l-17.5,9.5L74.1,107l-19.4-0.4l9.6-17.6L47,78.3
		l17-10.1l-9.8-17.3L74,50.5l0.4-20.1l17.8,9.7l10-17.1l9.8,17.1l17.8-10.4l0.6,20.8l20.2,0.4l-10,17.7L158,78.6l-17.3,10.5
		l9.6,17.2l-19.8,0.5L130,126.5z"/>
	<linearGradient id="XMLID_75_" gradientUnits="userSpaceOnUse" x1="147.0643" y1="19.75" x2="147.0643" y2="136.75">
		<stop  offset="0" style="stop-color:#F1C874"/>
		<stop  offset="1" style="stop-color:#D39D4D"/>
	</linearGradient>
	<polygon id="XMLID_34_" class="st13" points="140.7,89.2 158,78.6 140.6,68.5 134.9,78.6 	"/>
	<linearGradient id="XMLID_76_" gradientUnits="userSpaceOnUse" x1="120.9785" y1="19.75" x2="120.9785" y2="136.75">
		<stop  offset="0" style="stop-color:#F1C874"/>
		<stop  offset="1" style="stop-color:#D39D4D"/>
	</linearGradient>
	<polygon id="XMLID_35_" class="st14" points="130.4,50.5 129.9,29.7 112,40.1 117.9,50.3 	"/>
	<linearGradient id="XMLID_77_" gradientUnits="userSpaceOnUse" x1="121.1445" y1="19.75" x2="121.1445" y2="136.75">
		<stop  offset="0" style="stop-color:#F1C874"/>
		<stop  offset="1" style="stop-color:#D39D4D"/>
	</linearGradient>
	<polygon id="XMLID_36_" class="st15" points="112.4,117.1 130,126.5 130.5,106.9 118.3,107.3 	"/>
	<linearGradient id="XMLID_78_" gradientUnits="userSpaceOnUse" x1="83.3665" y1="19.75" x2="83.3665" y2="136.75">
		<stop  offset="0" style="stop-color:#F1C874"/>
		<stop  offset="1" style="stop-color:#D39D4D"/>
	</linearGradient>
	<polygon id="XMLID_37_" class="st16" points="79.8,107.1 79.8,107.1 79.8,107.1 74.1,107 74.6,126.4 92.1,116.9 86.4,107.3 	"/>
	<linearGradient id="XMLID_79_" gradientUnits="userSpaceOnUse" x1="57.8808" y1="19.75" x2="57.8808" y2="136.75">
		<stop  offset="0" style="stop-color:#F1C874"/>
		<stop  offset="1" style="stop-color:#D39D4D"/>
	</linearGradient>
	<polygon id="XMLID_38_" class="st17" points="64,68.1 47,78.3 64.3,88.9 69.9,78.6 	"/>
	<linearGradient id="XMLID_80_" gradientUnits="userSpaceOnUse" x1="83.3912" y1="19.75" x2="83.3912" y2="136.75">
		<stop  offset="0" style="stop-color:#F1C874"/>
		<stop  offset="1" style="stop-color:#D39D4D"/>
	</linearGradient>
	<polygon id="XMLID_39_" class="st18" points="92.2,40.1 74.5,30.3 74,50.5 86.3,50.3 	"/>
	<linearGradient id="XMLID_81_" gradientUnits="userSpaceOnUse" x1="79.7504" y1="107.1018" x2="79.7504" y2="107.1018">
		<stop  offset="0" style="stop-color:#F1C874"/>
		<stop  offset="1" style="stop-color:#D39D4D"/>
	</linearGradient>
	<polygon id="XMLID_40_" class="st19" points="79.8,107.1 79.8,107.1 79.8,107.1 	"/>
	<linearGradient id="XMLID_82_" gradientUnits="userSpaceOnUse" x1="140.8769" y1="19.75" x2="140.8769" y2="136.75">
		<stop  offset="0" style="stop-color:#F1C874"/>
		<stop  offset="1" style="stop-color:#D39D4D"/>
	</linearGradient>
	<polygon id="XMLID_41_" class="st20" points="140.7,89.2 130.8,95.3 130.5,106.9 150.3,106.4 	"/>
	<linearGradient id="XMLID_83_" gradientUnits="userSpaceOnUse" x1="102.2391" y1="19.75" x2="102.2391" y2="136.75">
		<stop  offset="0" style="stop-color:#F1C874"/>
		<stop  offset="1" style="stop-color:#D39D4D"/>
	</linearGradient>
	<polygon id="XMLID_42_" class="st21" points="101.8,111.6 101.8,111.8 101.8,111.6 92.1,116.9 102.3,133.9 112.4,117.1 102,111.5 	
		"/>
	<linearGradient id="XMLID_84_" gradientUnits="userSpaceOnUse" x1="63.5578" y1="19.75" x2="63.5578" y2="136.75">
		<stop  offset="0" style="stop-color:#F1C874"/>
		<stop  offset="1" style="stop-color:#D39D4D"/>
	</linearGradient>
	<polygon id="XMLID_44_" class="st22" points="74,50.5 54.1,50.8 64,68.1 73.8,62.3 	"/>
	<linearGradient id="XMLID_85_" gradientUnits="userSpaceOnUse" x1="63.9187" y1="19.75" x2="63.9187" y2="136.75">
		<stop  offset="0" style="stop-color:#F1C874"/>
		<stop  offset="1" style="stop-color:#D39D4D"/>
	</linearGradient>
	<polygon id="XMLID_45_" class="st23" points="64.3,88.9 54.7,106.5 74.1,107 73.8,94.8 	"/>
	<linearGradient id="XMLID_86_" gradientUnits="userSpaceOnUse" x1="102.1175" y1="19.75" x2="102.1175" y2="136.75">
		<stop  offset="0" style="stop-color:#F1C874"/>
		<stop  offset="1" style="stop-color:#D39D4D"/>
	</linearGradient>
	<polygon id="XMLID_46_" class="st24" points="112,40.1 102.3,23 92.2,40.1 102.5,45.7 	"/>
	<linearGradient id="XMLID_87_" gradientUnits="userSpaceOnUse" x1="141.0468" y1="19.75" x2="141.0468" y2="136.75">
		<stop  offset="0" style="stop-color:#F1C874"/>
		<stop  offset="1" style="stop-color:#D39D4D"/>
	</linearGradient>
	<polygon id="XMLID_49_" class="st25" points="140.6,68.5 150.7,50.8 130.4,50.5 130.8,62.8 	"/>
	<linearGradient id="XMLID_88_" gradientUnits="userSpaceOnUse" x1="102.328" y1="19.75" x2="102.328" y2="136.75">
		<stop  offset="0" style="stop-color:#F1C874"/>
		<stop  offset="1" style="stop-color:#D39D4D"/>
	</linearGradient>
	<path id="XMLID_52_" class="st26" d="M125.4,92.1l5.4,3.2l10-6.1l-5.8-10.5l-4.6-0.2l4.6,0.2l5.8-10.1l-9.9-5.7l-4,2.7l4-2.7
		l-0.3-12.3l-12.5-0.2l-4.1,5.8l4.1-5.8L112,40.1l-9.6,5.6l-10.2-5.6l-6,10.2l4.2,5.8l-4.2-5.8L74,50.5l-0.3,11.8L64,68.1l6,10.5
		l-5.6,10.3l9.4,5.8l5.8-2.7l-5.8,2.7l0.3,12.2l5.7,0.1V93.2c0-1.6-0.3-3.1-1-4.6l-2-4.6c-0.6-1.3-2.1-4.3-2.4-5.7
		c-0.8-5,1.4-11.3,5.7-14.2l7.6-5.1c1.5-1,2.9-2.1,4.2-3.3l10.3-10.1l10.4,10.1c1.3,1.2,2.7,2.3,4.2,3.3l7.6,5.1
		c4.3,2.9,6.5,9.2,5.7,14.2c-0.2,1.4-1.7,4.3-2.4,5.7l-2.1,4.6c-0.7,1.4-1,3-1,4.6v13.9l-22.5,0.2l-22.5-0.1l6.6,0.1l5.7,9.6
		l9.6-5.2v-2.9v2.9l0.3-0.1l10.4,5.6l5.9-9.8l12.2-0.3l0.3-11.7L125.4,92.1z M70.3,78.3h4H70.3z M73.8,61.9l4.7,3.4L73.8,61.9z"/>
	<linearGradient id="XMLID_89_" gradientUnits="userSpaceOnUse" x1="102.2821" y1="19.75" x2="102.2821" y2="136.75">
		<stop  offset="0" style="stop-color:#F1C874"/>
		<stop  offset="1" style="stop-color:#D39D4D"/>
	</linearGradient>
	<path id="XMLID_54_" class="st27" d="M102.3,107.3l22.5-0.2V93.2c0-1.6,0.3-3.1,1-4.6l2.1-4.6c0.6-1.3,2.1-4.3,2.4-5.7
		c0.8-5-1.4-11.3-5.7-14.2l-7.6-5.1c-1.5-1-2.9-2.1-4.2-3.3l-10.4-10.1L91.9,55.7c-1.3,1.2-2.7,2.3-4.2,3.3l-7.6,5.1
		c-4.3,2.9-6.5,9.2-5.7,14.2c0.2,1.4,1.7,4.3,2.4,5.7l2,4.6c0.7,1.4,1,3,1,4.6v13.9h0L102.3,107.3z"/>
	<path id="XMLID_21_" class="st28" d="M102.8,37.2c0-1.4,0.8-2.6,2-3.2c-0.5-0.2-1-0.3-1.5-0.3c-1.9,0-3.5,1.6-3.5,3.5
		c0,1.9,1.6,3.5,3.5,3.5c0.5,0,1-0.1,1.5-0.3C103.7,39.8,102.8,38.6,102.8,37.2z"/>
</g>
<g id="XMLID_1_">
	<g id="XMLID_260_">
		<path id="XMLID_283_" class="st29" d="M17.7,171.9c0,0.4,0.1,0.8,0.2,1c0.1,0.3,0.3,0.5,0.5,0.7c0.2,0.2,0.4,0.3,0.6,0.5
			c0.2,0.1,0.4,0.2,0.6,0.4c0.2,0.1,0.4,0.3,0.5,0.5c0.1,0.2,0.2,0.4,0.2,0.7c0,0.4-0.2,0.8-0.5,1c-0.3,0.2-0.7,0.4-1.1,0.4
			c-0.4,0-0.7-0.1-1.1-0.4c-0.3-0.2-0.6-0.6-0.9-1c-0.2-0.4-0.4-0.9-0.6-1.5c-0.1-0.6-0.2-1.2-0.2-1.8c0-0.8,0.1-1.5,0.4-2.2
			c0.2-0.7,0.6-1.3,1.1-1.9c0.5-0.5,1.1-1,1.7-1.3c0.7-0.3,1.5-0.5,2.4-0.5c0.6,0,1.3,0.1,2,0.3c0.7,0.2,1.4,0.5,2.1,0.9
			c0.7,0.4,1.4,1,2,1.7c0.7,0.7,1.2,1.5,1.8,2.5c0.5,1,0.9,2.1,1.2,3.4c0.3,1.3,0.5,2.8,0.5,4.4c0,2.1-0.3,4-0.9,5.7
			c-0.6,1.7-1.5,3.1-2.6,4.3c-1.1,1.2-2.3,2.1-3.7,2.7c-1.4,0.6-2.9,0.9-4.5,0.9c-1.6,0-3.1-0.3-4.5-0.8c-1.4-0.5-2.7-1.4-3.8-2.5
			c-1.1-1.1-2-2.5-2.6-4.2c-0.6-1.7-1-3.7-1-6.1c0-1.8,0.2-3.5,0.7-5c0.5-1.5,1.1-2.8,2-4c0.8-1.2,1.8-2.1,2.9-2.9
			c1.1-0.8,2.3-1.4,3.5-1.8l0.6,0.8c-0.3,0.3-0.7,0.7-1,1.1c-0.3,0.4-0.6,0.8-0.8,1.3c-0.3,0.5-0.5,1-0.7,1.6
			c-0.2,0.6-0.4,1.3-0.5,2.2C14.1,174,14,175,14,176c-0.1,1.1-0.1,2.4-0.1,3.8c0,1.9,0.1,3.4,0.3,4.8c0.2,1.3,0.5,2.4,0.8,3.3
			c0.3,0.9,0.7,1.6,1.1,2.1c0.4,0.5,0.8,0.9,1.2,1.2c0.4,0.3,0.8,0.4,1.2,0.5c0.4,0.1,0.7,0.1,1,0.1s0.6,0,1-0.1
			c0.4-0.1,0.8-0.3,1.2-0.5c0.4-0.3,0.8-0.7,1.2-1.2c0.4-0.5,0.8-1.2,1.1-2.1c0.3-0.9,0.6-2,0.8-3.3c0.2-1.3,0.3-2.9,0.3-4.8
			c0-1.6-0.1-3-0.2-4.2c-0.1-1.2-0.3-2.2-0.6-3.1c-0.2-0.9-0.5-1.6-0.8-2.1c-0.3-0.5-0.6-1-1-1.3c-0.3-0.3-0.7-0.5-1-0.7
			c-0.3-0.1-0.6-0.2-0.9-0.2c-0.4,0-0.8,0.1-1.2,0.3c-0.3,0.2-0.6,0.5-0.8,0.8c-0.2,0.3-0.4,0.7-0.5,1.2
			C17.8,171,17.7,171.5,17.7,171.9z"/>
		<path id="XMLID_280_" class="st29" d="M35.4,177.6c0-0.3-0.1-0.7-0.2-0.9c-0.2-0.3-0.4-0.4-0.8-0.4c-0.2,0-0.4,0-0.5,0.1
			s-0.3,0.2-0.5,0.3l-0.4-0.5c0.3-0.2,0.6-0.5,0.9-0.7c0.3-0.2,0.7-0.4,1.1-0.6c0.4-0.2,0.8-0.3,1.3-0.4c0.5-0.1,0.9-0.2,1.4-0.2
			c0.5,0,1,0.1,1.4,0.3c0.4,0.2,0.7,0.4,1,0.6c0.3,0.2,0.5,0.5,0.6,0.7c0.1,0.3,0.2,0.5,0.2,0.7c0.2-0.3,0.5-0.6,0.9-0.9
			c0.3-0.3,0.7-0.5,1.1-0.7c0.4-0.2,0.8-0.4,1.2-0.5c0.4-0.1,0.9-0.2,1.4-0.2c1,0,1.8,0.2,2.6,0.6c0.8,0.4,1.5,1,2,1.8
			c0.6,0.8,1,1.8,1.3,2.9c0.3,1.2,0.5,2.5,0.5,4c0,1.8-0.2,3.3-0.6,4.5c-0.4,1.2-0.8,2.2-1.4,3c-0.6,0.8-1.3,1.4-2,1.7
			c-0.8,0.4-1.5,0.5-2.3,0.5c-0.7,0-1.2-0.1-1.7-0.2c-0.5-0.1-0.9-0.3-1.3-0.5c-0.4-0.2-0.7-0.4-0.9-0.6c-0.2-0.2-0.4-0.4-0.6-0.5
			v8.8c0,0.2,0,0.3-0.1,0.6c0,0.2-0.2,0.4-0.4,0.6c-0.2,0.2-0.5,0.4-0.8,0.5c-0.4,0.1-0.9,0.2-1.5,0.2c-0.6,0-1.1-0.1-1.5-0.2
			c-0.4-0.2-0.6-0.3-0.8-0.5c-0.2-0.2-0.3-0.4-0.4-0.6c0-0.2-0.1-0.4-0.1-0.5V177.6z M41,189.1c0,0.1,0,0.3,0.1,0.5
			c0.1,0.2,0.2,0.5,0.4,0.7s0.4,0.5,0.7,0.7c0.3,0.2,0.6,0.3,1,0.3c0.5,0,1-0.2,1.4-0.6c0.4-0.4,0.7-1,0.9-1.6
			c0.2-0.7,0.4-1.5,0.5-2.4c0.1-0.9,0.2-1.9,0.2-3c0-1.3-0.1-2.4-0.2-3.3c-0.1-0.9-0.3-1.6-0.6-2.2c-0.3-0.5-0.6-0.9-0.9-1.2
			c-0.4-0.2-0.8-0.4-1.2-0.4c-0.3,0-0.5,0.1-0.8,0.2c-0.3,0.2-0.5,0.3-0.7,0.6c-0.2,0.2-0.4,0.5-0.5,0.8c-0.1,0.3-0.2,0.5-0.2,0.8
			V189.1z"/>
		<path id="XMLID_277_" class="st29" d="M60.2,184.9c0,0.4,0.1,0.8,0.2,1.3c0.1,0.5,0.3,0.9,0.5,1.4c0.2,0.5,0.5,0.9,0.8,1.3
			c0.3,0.4,0.7,0.8,1.1,1.1c0.4,0.3,0.9,0.6,1.4,0.8c0.5,0.2,1.1,0.3,1.7,0.3c0.4,0,0.8,0,1.2-0.1c0.4-0.1,0.7-0.2,1-0.4
			c0.3-0.2,0.6-0.4,0.9-0.6c0.3-0.2,0.6-0.5,0.9-0.7l0.5,0.4c-0.3,0.4-0.6,0.8-1.1,1.2c-0.4,0.4-1,0.9-1.6,1.3
			c-0.6,0.4-1.3,0.7-2.1,1c-0.8,0.3-1.8,0.4-2.8,0.4s-2.1-0.2-3.1-0.6c-1-0.4-1.9-0.9-2.6-1.7c-0.8-0.8-1.4-1.7-1.9-2.8
			c-0.5-1.1-0.7-2.5-0.7-4c0-1.1,0.1-2.1,0.4-3c0.3-0.9,0.7-1.7,1.1-2.5c0.5-0.7,1-1.4,1.7-1.9c0.6-0.6,1.3-1,2-1.4
			c0.7-0.4,1.4-0.6,2.1-0.8c0.7-0.2,1.4-0.3,2.1-0.3c0.9,0,1.7,0.1,2.3,0.3c0.7,0.2,1.2,0.5,1.7,0.8c0.4,0.3,0.8,0.7,1,1.1
			c0.2,0.4,0.3,0.9,0.3,1.3c0,0.6-0.2,1.1-0.5,1.5c-0.3,0.5-0.8,0.8-1.3,1.2L60.2,184.9z M63.9,181.2c0.2-0.1,0.3-0.2,0.4-0.3
			c0.1-0.1,0.2-0.2,0.2-0.3c0.1-0.1,0.1-0.3,0.1-0.5c0-0.2,0-0.4,0-0.7c0-0.3,0-0.6-0.1-1c-0.1-0.4-0.2-0.7-0.3-1
			c-0.2-0.3-0.4-0.6-0.6-0.8c-0.2-0.2-0.5-0.3-0.9-0.3c-0.4,0-0.8,0.1-1.1,0.4c-0.3,0.3-0.6,0.6-0.8,1c-0.2,0.4-0.4,0.9-0.5,1.4
			c-0.1,0.5-0.2,1.1-0.3,1.6c-0.1,0.5-0.1,1-0.1,1.5c0,0.5,0,0.9,0,1.2L63.9,181.2z"/>
		<path id="XMLID_275_" class="st29" d="M83.6,184.2c0-1.5-0.1-2.7-0.2-3.6c-0.1-0.9-0.3-1.6-0.6-2.1c-0.2-0.5-0.5-0.8-0.8-0.9
			c-0.3-0.2-0.6-0.2-0.8-0.2c-0.3,0-0.7,0.1-0.9,0.3c-0.3,0.2-0.5,0.4-0.7,0.6c-0.2,0.2-0.4,0.5-0.5,0.7c-0.1,0.2-0.3,0.4-0.4,0.5
			v12.1c0,0.2,0,0.3-0.1,0.6c0,0.2-0.2,0.4-0.4,0.6c-0.2,0.2-0.5,0.4-0.8,0.5c-0.4,0.1-0.9,0.2-1.5,0.2c-0.6,0-1.1-0.1-1.5-0.2
			c-0.4-0.2-0.6-0.3-0.8-0.5c-0.2-0.2-0.3-0.4-0.4-0.6c0-0.2-0.1-0.4-0.1-0.5v-13.9c0-0.3-0.1-0.7-0.2-0.9c-0.2-0.3-0.4-0.4-0.8-0.4
			c-0.2,0-0.4,0-0.5,0.1s-0.3,0.2-0.5,0.3l-0.4-0.5c0.3-0.2,0.6-0.5,0.9-0.7c0.3-0.2,0.7-0.4,1.1-0.6c0.4-0.2,0.8-0.3,1.3-0.4
			c0.5-0.1,0.9-0.2,1.4-0.2c0.8,0,1.4,0.1,1.8,0.4c0.4,0.3,0.8,0.6,1,0.9c0.2,0.4,0.3,0.7,0.4,1.1c0,0.4,0.1,0.7,0.1,1
			c0.4-0.6,1-1.2,1.5-1.7c0.2-0.2,0.5-0.4,0.8-0.6c0.3-0.2,0.6-0.4,0.9-0.6c0.3-0.2,0.7-0.3,1-0.4c0.4-0.1,0.7-0.1,1.1-0.1
			c0.8,0,1.5,0.2,2.2,0.5c0.6,0.3,1.2,0.8,1.6,1.6c0.4,0.7,0.8,1.7,1,2.9c0.2,1.2,0.3,2.7,0.3,4.5c0,1.7-0.2,3.3-0.5,4.6
			c-0.3,1.3-0.7,2.4-1.2,3.3s-1.1,1.6-1.7,2.2c-0.6,0.6-1.3,1-1.9,1.3s-1.3,0.6-1.9,0.7c-0.6,0.1-1.1,0.2-1.5,0.2l-0.2-0.7
			c0.4-0.1,0.7-0.2,1-0.4c0.3-0.2,0.6-0.4,0.8-0.8c0.3-0.3,0.5-0.8,0.7-1.3c0.2-0.5,0.4-1.2,0.5-2c0.1-0.8,0.2-1.8,0.3-2.9
			C83.5,187,83.6,185.7,83.6,184.2z"/>
		<path id="XMLID_272_" class="st29" d="M108.2,169.4c0-0.4-0.1-0.7-0.4-0.9c-0.3-0.2-0.6-0.3-0.9-0.3c-0.7,0-1.3,0.1-2,0.3
			c-0.6,0.2-1.2,0.5-1.7,0.8c-0.5,0.3-0.9,0.8-1.2,1.2c-0.3,0.5-0.5,1-0.5,1.5c0,0.4,0.1,0.7,0.2,0.9c0.1,0.2,0.2,0.4,0.4,0.5
			c0.1,0.1,0.3,0.2,0.4,0.2c0.1,0,0.2,0,0.3,0c0.3,0,0.5-0.1,0.7-0.2c0.2-0.1,0.4-0.2,0.5-0.3c0.2-0.1,0.3-0.2,0.4-0.3
			c0.1-0.1,0.3-0.2,0.5-0.2c0.1,0,0.3,0,0.5,0.1c0.2,0.1,0.3,0.2,0.5,0.3c0.1,0.1,0.3,0.3,0.4,0.6c0.1,0.2,0.1,0.5,0.1,0.9
			c0,0.5-0.1,0.9-0.3,1.2c-0.2,0.3-0.4,0.6-0.7,0.9c-0.3,0.2-0.6,0.4-1,0.5c-0.4,0.1-0.8,0.2-1.1,0.2c-0.6,0-1.1-0.1-1.6-0.3
			c-0.5-0.2-0.9-0.5-1.2-0.8c-0.3-0.3-0.6-0.8-0.7-1.2c-0.2-0.5-0.3-1-0.3-1.5c0-1.5,0.4-2.7,1.1-3.7c0.8-1,1.8-1.7,3.1-2.3
			c1.3-0.6,2.8-0.9,4.6-1.2c1.7-0.2,3.6-0.3,5.6-0.3c2.2,0,4.3,0.2,6.1,0.7c1.8,0.5,3.4,1.2,4.7,2.2c1.3,1,2.3,2.3,3,4
			c0.7,1.6,1,3.6,1,6s-0.4,4.4-1.1,6.3c-0.7,1.8-1.8,3.3-3,4.6c-1.3,1.2-2.8,2.2-4.5,2.8c-1.7,0.6-3.6,1-5.6,1
			c-1.3,0-2.4-0.1-3.2-0.2c-0.8-0.1-1.4-0.3-1.9-0.7c-0.4-0.3-0.7-0.7-0.9-1.2c-0.1-0.5-0.2-1.2-0.2-1.9V169.4z M114.2,189.8
			c0,0.7,0.2,1.2,0.5,1.5c0.3,0.3,0.8,0.4,1.4,0.4c0.9,0,1.7-0.2,2.5-0.6c0.8-0.4,1.4-1.1,2-2.1c0.6-1,1-2.3,1.3-3.9
			c0.3-1.6,0.5-3.6,0.5-6.1c0-1.6-0.1-3.1-0.3-4.3c-0.2-1.2-0.5-2.2-0.8-3.1c-0.3-0.8-0.7-1.5-1.1-2c-0.4-0.5-0.8-0.9-1.3-1.2
			c-0.4-0.3-0.9-0.5-1.3-0.6c-0.4-0.1-0.8-0.2-1.1-0.2c-0.8,0-1.3,0.2-1.7,0.5c-0.3,0.3-0.5,1-0.5,1.9V189.8z"/>
		<path id="XMLID_270_" class="st29" d="M148.4,190.1c0,0.1,0,0.2,0,0.4c0,0.1,0,0.2,0.1,0.4c0,0.1,0.1,0.2,0.2,0.3
			c0.1,0.1,0.2,0.1,0.4,0.1c0.2,0,0.4-0.1,0.6-0.2c0.2-0.2,0.3-0.3,0.5-0.5l0.4,0.4c-0.2,0.3-0.4,0.5-0.7,0.8
			c-0.3,0.3-0.6,0.6-1,0.9c-0.4,0.3-0.8,0.5-1.3,0.7c-0.5,0.2-1.1,0.3-1.7,0.3c-0.5,0-1-0.1-1.4-0.2c-0.4-0.1-0.7-0.3-1-0.6
			c-0.3-0.2-0.5-0.5-0.6-0.8c-0.1-0.3-0.2-0.7-0.2-1v-0.8c-0.6,0.7-1.2,1.2-1.9,1.7c-0.3,0.2-0.6,0.4-0.9,0.6
			c-0.3,0.2-0.7,0.4-1,0.6c-0.3,0.2-0.7,0.3-1.1,0.4c-0.4,0.1-0.7,0.1-1.1,0.1c-0.7,0-1.3-0.1-1.9-0.4c-0.5-0.3-0.9-0.6-1.2-1
			c-0.3-0.4-0.5-0.9-0.7-1.4c-0.1-0.5-0.2-1.1-0.2-1.6v-11.2c0-0.1,0-0.2,0-0.4c0-0.1,0-0.2-0.1-0.4c0-0.1-0.1-0.2-0.2-0.3
			c-0.1-0.1-0.2-0.1-0.4-0.1c-0.2,0-0.4,0.1-0.6,0.2c-0.2,0.2-0.4,0.3-0.5,0.5l-0.5-0.4c0.2-0.3,0.4-0.5,0.7-0.8
			c0.3-0.3,0.6-0.6,1-0.9c0.4-0.3,0.8-0.5,1.3-0.7c0.5-0.2,1.1-0.3,1.7-0.3c0.5,0,1,0.1,1.4,0.2c0.4,0.1,0.7,0.3,1,0.6
			c0.3,0.2,0.5,0.5,0.6,0.8c0.1,0.3,0.2,0.7,0.2,1v12.1c0,0.2,0,0.3,0.1,0.5c0.1,0.2,0.1,0.3,0.2,0.5c0.1,0.1,0.2,0.3,0.4,0.4
			c0.2,0.1,0.3,0.1,0.6,0.1c0.3,0,0.7-0.1,1-0.3c0.3-0.2,0.7-0.4,1-0.6c0.3-0.2,0.5-0.5,0.7-0.7c0.2-0.2,0.4-0.4,0.5-0.5v-10.6
			c0-0.1,0-0.2,0-0.4c0-0.1,0-0.2-0.1-0.4c0-0.1-0.1-0.2-0.2-0.3c-0.1-0.1-0.2-0.1-0.4-0.1c-0.2,0-0.4,0.1-0.6,0.2
			c-0.2,0.2-0.4,0.3-0.5,0.5l-0.5-0.4c0.2-0.3,0.4-0.5,0.7-0.8c0.3-0.3,0.6-0.6,1-0.9c0.4-0.3,0.8-0.5,1.3-0.7
			c0.5-0.2,1.1-0.3,1.7-0.3c0.5,0,1,0.1,1.4,0.2c0.4,0.1,0.7,0.3,1,0.6c0.3,0.2,0.5,0.5,0.6,0.8c0.1,0.3,0.2,0.7,0.2,1V190.1z"/>
		<path id="XMLID_267_" class="st29" d="M152.8,168.3c0-0.3-0.1-0.7-0.2-0.9c-0.2-0.3-0.4-0.4-0.8-0.4c-0.2,0-0.4,0-0.5,0.1
			c-0.2,0.1-0.3,0.2-0.5,0.3l-0.4-0.4c0.3-0.2,0.6-0.5,0.9-0.7c0.3-0.2,0.7-0.4,1.1-0.6c0.4-0.2,0.8-0.3,1.3-0.4
			c0.5-0.1,0.9-0.2,1.4-0.2c0.7,0,1.3,0.1,1.7,0.3c0.4,0.2,0.8,0.5,1,0.8c0.2,0.3,0.4,0.6,0.4,1c0.1,0.4,0.1,0.7,0.1,1v8.1
			c0.1-0.1,0.3-0.3,0.6-0.5c0.2-0.2,0.5-0.4,0.9-0.6c0.3-0.2,0.8-0.4,1.3-0.5c0.5-0.1,1.1-0.2,1.7-0.2c0.8,0,1.5,0.2,2.3,0.5
			c0.8,0.4,1.5,0.9,2.1,1.7s1.1,1.7,1.5,2.9c0.4,1.2,0.6,2.6,0.6,4.3c0,1.3-0.2,2.6-0.5,3.7c-0.4,1.2-0.9,2.2-1.6,3.1
			c-0.7,0.9-1.6,1.6-2.6,2.1s-2.3,0.8-3.6,0.8c-1.5,0-2.8-0.2-3.8-0.7c-1-0.5-1.9-1.1-2.5-2c-0.6-0.8-1.1-1.8-1.3-2.9
			c-0.3-1.1-0.4-2.3-0.4-3.5V168.3z M163.5,184.2c0-1-0.1-2-0.2-3c-0.1-0.9-0.3-1.7-0.5-2.4c-0.2-0.7-0.5-1.2-0.9-1.6
			c-0.4-0.4-0.8-0.6-1.4-0.6c-0.4,0-0.8,0.1-1,0.3c-0.3,0.2-0.5,0.4-0.7,0.7s-0.3,0.5-0.4,0.8c-0.1,0.2-0.1,0.4-0.1,0.5v5.4
			c0,2.6,0.2,4.5,0.7,5.7c0.4,1.2,1.1,1.8,1.9,1.8c0.9,0,1.6-0.6,2-1.8C163.3,188.7,163.5,186.8,163.5,184.2z"/>
		<path id="XMLID_264_" class="st29" d="M178.2,175.9c-0.4,0-0.8,0-1.1,0.1c-0.3,0.1-0.7,0.2-0.9,0.4s-0.5,0.3-0.6,0.5
			c-0.1,0.2-0.2,0.3-0.2,0.5c0,0.2,0.1,0.3,0.3,0.4c0.2,0.1,0.4,0.2,0.6,0.3c0.2,0.1,0.4,0.2,0.6,0.4c0.2,0.2,0.3,0.5,0.3,0.9
			c0,0.3-0.1,0.5-0.2,0.7c-0.1,0.2-0.2,0.4-0.4,0.6c-0.2,0.2-0.4,0.3-0.6,0.4c-0.2,0.1-0.5,0.1-0.7,0.1c-0.7,0-1.2-0.2-1.6-0.7
			c-0.4-0.5-0.6-1.1-0.6-1.8c0-0.7,0.2-1.4,0.6-1.9c0.4-0.5,0.9-1,1.5-1.3c0.6-0.3,1.3-0.6,2.1-0.7c0.8-0.2,1.6-0.2,2.3-0.2
			c0.9,0,1.8,0.1,2.7,0.3c0.9,0.2,1.6,0.5,2.3,1c0.7,0.4,1.2,1,1.6,1.7c0.4,0.7,0.6,1.5,0.6,2.5v10.2c0,0.1,0,0.2,0,0.4
			c0,0.1,0,0.3,0.1,0.4c0,0.1,0.1,0.2,0.2,0.3c0.1,0.1,0.2,0.1,0.4,0.1c0.2,0,0.4-0.1,0.6-0.2c0.2-0.2,0.4-0.3,0.5-0.5l0.5,0.4
			c-0.2,0.3-0.4,0.5-0.7,0.8c-0.3,0.3-0.6,0.6-0.9,0.8c-0.4,0.3-0.8,0.5-1.3,0.7c-0.5,0.2-1,0.3-1.6,0.3c-0.8,0-1.4-0.2-2-0.7
			c-0.6-0.5-1-1.1-1.2-2.1c-0.4,0.5-0.8,1-1.2,1.3c-0.4,0.3-0.8,0.6-1.3,0.8s-0.9,0.4-1.3,0.5c-0.4,0.1-0.9,0.1-1.3,0.1
			c-0.6,0-1.1-0.1-1.7-0.3s-1-0.5-1.5-0.9c-0.4-0.4-0.8-0.9-1-1.5c-0.3-0.6-0.4-1.4-0.4-2.3c0-1.1,0.2-2,0.7-2.7
			c0.4-0.7,1-1.3,1.7-1.8c0.7-0.5,1.5-0.9,2.4-1.2c0.9-0.3,1.8-0.7,2.8-1.1c0.7-0.3,1.2-0.7,1.5-1.2c0.3-0.5,0.5-1.1,0.5-1.7
			c0-0.9-0.3-1.6-0.8-2.1C179.8,176.2,179.1,175.9,178.2,175.9z M181.1,183.8c0-0.3-0.1-0.5-0.3-0.7c-0.2-0.2-0.4-0.2-0.7-0.2
			c-0.4,0-0.8,0.1-1.2,0.3c-0.4,0.2-0.7,0.5-1,0.8c-0.3,0.4-0.5,0.8-0.7,1.4c-0.2,0.5-0.3,1.2-0.3,1.9c0,0.7,0.1,1.3,0.2,1.7
			c0.1,0.5,0.2,0.8,0.4,1.1c0.2,0.3,0.4,0.5,0.6,0.6c0.2,0.1,0.5,0.2,0.7,0.2c0.3,0,0.6-0.1,0.9-0.2c0.3-0.2,0.5-0.4,0.7-0.6
			c0.2-0.3,0.4-0.5,0.5-0.8c0.1-0.3,0.2-0.6,0.2-0.9V183.8z"/>
		<path id="XMLID_261_" class="st29" d="M197.4,191.6c0,0.2,0,0.3-0.1,0.6c-0.1,0.2-0.2,0.4-0.4,0.6c-0.2,0.2-0.5,0.4-0.9,0.5
			c-0.4,0.1-0.9,0.2-1.5,0.2c-0.6,0-1.1-0.1-1.5-0.2c-0.4-0.2-0.6-0.3-0.8-0.5c-0.2-0.2-0.3-0.4-0.3-0.6c0-0.2-0.1-0.4-0.1-0.5
			v-13.9c0-0.3-0.1-0.7-0.2-0.9c-0.2-0.3-0.4-0.4-0.8-0.4c-0.2,0-0.4,0-0.5,0.1s-0.3,0.2-0.5,0.3l-0.4-0.5c0.3-0.2,0.6-0.5,0.9-0.7
			c0.3-0.2,0.7-0.4,1.1-0.6c0.4-0.2,0.8-0.3,1.3-0.4c0.5-0.1,0.9-0.2,1.4-0.2c0.8,0,1.4,0.1,1.8,0.3c0.4,0.2,0.8,0.5,1,0.8
			c0.2,0.3,0.3,0.6,0.4,1c0,0.3,0.1,0.7,0.1,0.9V191.6z M191.3,170.3c0-0.3,0.1-0.7,0.2-1c0.2-0.3,0.4-0.6,0.6-0.8
			c0.3-0.2,0.6-0.4,0.9-0.5c0.4-0.1,0.7-0.2,1.2-0.2c0.4,0,0.8,0.1,1.1,0.2c0.4,0.1,0.7,0.3,0.9,0.5c0.3,0.2,0.5,0.5,0.6,0.8
			c0.2,0.3,0.2,0.6,0.2,1c0,0.3-0.1,0.7-0.2,1c-0.2,0.3-0.4,0.6-0.6,0.8c-0.3,0.2-0.6,0.4-0.9,0.5c-0.4,0.1-0.7,0.2-1.1,0.2
			c-0.4,0-0.8-0.1-1.2-0.2c-0.4-0.1-0.7-0.3-0.9-0.5c-0.3-0.2-0.5-0.5-0.6-0.8C191.4,171,191.3,170.7,191.3,170.3z"/>
	</g>
</g>
</svg>
